<svg width="24" height="24" viewBox="0 0 24 24" xmlns="http://www.w3.org/2000/svg">
  <path
    fill="currentColor"
    d="M4 4.75C4 4.336 4.336 4 4.75 4H10.25C10.664 4 11 4.336 11 4.75V10.25C11 10.664 10.664 11 10.25 11H4.75C4.336 11 4 10.664 4 10.25V4.75ZM5.5 5.5V9.5H9.5V5.5H5.5ZM13 4.75C13 4.336 13.336 4 13.75 4H19.25C19.664 4 20 4.336 20 4.75V10.25C20 10.664 19.664 11 19.25 11H13.75C13.336 11 13 10.664 13 10.25V4.75ZM14.5 5.5V9.5H18.5V5.5H14.5ZM4 13.75C4 13.336 4.336 13 4.75 13H10.25C10.664 13 11 13.336 11 13.75V19.25C11 19.664 10.664 20 10.25 20H4.75C4.336 20 4 19.664 4 19.25V13.75ZM5.5 14.5V18.5H9.5V14.5H5.5ZM13 13.75C13 13.336 13.336 13 13.75 13H19.25C19.664 13 20 13.336 20 13.75V19.25C20 19.664 19.664 20 19.25 20H13.75C13.336 20 13 19.664 13 19.25V13.75ZM14.5 14.5V18.5H18.5V14.5H14.5Z"
  />
</svg>
