<svg width="256" height="256" viewBox="0 0 256 256" xmlns="http://www.w3.org/2000/svg">
  <defs>
    <linearGradient id="bg" x1="32" y1="24" x2="216" y2="232" gradientUnits="userSpaceOnUse">
      <stop stop-color="#28C6D7"/>
      <stop offset="1" stop-color="#0B476A"/>
    </linearGradient>
    <linearGradient id="pane" x1="72" y1="68" x2="176" y2="188" gradientUnits="userSpaceOnUse">
      <stop stop-color="#F8FCFF"/>
      <stop offset="1" stop-color="#D4ECF8"/>
    </linearGradient>
    <filter id="shadow" x="-20%" y="-20%" width="140%" height="140%">
      <feDropShadow dx="0" dy="12" stdDeviation="16" flood-color="#08293D" flood-opacity="0.34"/>
    </filter>
  </defs>
  <rect x="20" y="20" width="216" height="216" rx="52" fill="url(#bg)"/>
  <circle cx="196" cy="58" r="18" fill="#7FF0D7" opacity="0.75"/>
  <circle cx="62" cy="198" r="14" fill="#9CD8FF" opacity="0.45"/>
  <g filter="url(#shadow)">
    <rect x="50" y="50" width="156" height="156" rx="34" fill="#103854" fill-opacity="0.82"/>
    <rect x="66" y="66" width="54" height="54" rx="14" fill="url(#pane)"/>
    <rect x="136" y="66" width="54" height="54" rx="14" fill="url(#pane)"/>
    <rect x="66" y="136" width="54" height="54" rx="14" fill="url(#pane)"/>
    <rect x="136" y="136" width="54" height="54" rx="14" fill="url(#pane)"/>
    <rect x="74" y="74" width="38" height="8" rx="4" fill="#31BAD3" fill-opacity="0.8"/>
    <rect x="144" y="74" width="38" height="8" rx="4" fill="#31BAD3" fill-opacity="0.8"/>
    <rect x="74" y="144" width="38" height="8" rx="4" fill="#31BAD3" fill-opacity="0.8"/>
    <rect x="144" y="144" width="38" height="8" rx="4" fill="#31BAD3" fill-opacity="0.8"/>
  </g>
</svg>
